<?xml version="1.0" encoding="utf-8"?>
<!-- Generator: Adobe Illustrator 23.0.0, SVG Export Plug-In . SVG Version: 6.00 Build 0)  -->
<svg version="1.1" id="Layer_1" xmlns="http://www.w3.org/2000/svg" xmlns:xlink="http://www.w3.org/1999/xlink" x="0px" y="0px"
	 viewBox="0 0 30 30" style="enable-background:new 0 0 30 30;" xml:space="preserve">
<style type="text/css">
	.st0{fill:#FFFFFF;stroke:#000000;stroke-miterlimit:10;}
	.st1{stroke:#000000;stroke-width:0.5;stroke-miterlimit:10;}
	.st2{stroke:#000000;stroke-miterlimit:10;}
	.st3{fill:#F73333;}
	.st4{font-family:'Poppins-Medium';}
	.st5{font-size:10px;}
</style>
<g>
	<path class="st0" d="M22.88,25.5H7.15c-0.87,0-1.57-0.7-1.57-1.57V7.55c0-0.87,0.7-1.57,1.57-1.57h15.74c0.87,0,1.57,0.7,1.57,1.57
		v16.38C24.45,24.8,23.75,25.5,22.88,25.5z"/>
	<rect x="5.5" y="11.47" class="st1" width="18.87" height="0.65"/>
	<path class="st2" d="M19.61,7.84L19.61,7.84c-0.06,0-0.1-0.04-0.1-0.1V3.1c0-0.06,0.04-0.1,0.1-0.1l0,0c0.06,0,0.1,0.04,0.1,0.1
		v4.64C19.71,7.79,19.67,7.84,19.61,7.84z"/>
	<path class="st2" d="M10.42,7.84L10.42,7.84c-0.06,0-0.1-0.04-0.1-0.1V3.1c0-0.06,0.04-0.1,0.1-0.1h0c0.06,0,0.1,0.04,0.1,0.1v4.64
		C10.52,7.79,10.47,7.84,10.42,7.84z"/>
	<text transform="matrix(1 0 0 1 9.331 22.0352)" class="st3 st4 st5">30</text>
</g>
</svg>
