<?xml version="1.0" encoding="utf-8"?>
<!-- Generator: Adobe Illustrator 23.0.0, SVG Export Plug-In . SVG Version: 6.00 Build 0)  -->
<svg version="1.1" id="Layer_1" xmlns="http://www.w3.org/2000/svg" xmlns:xlink="http://www.w3.org/1999/xlink" x="0px" y="0px"
	 viewBox="0 0 135 98" style="enable-background:new 0 0 135 98;" xml:space="preserve">
<style type="text/css">
	.st0{fill:url(#XMLID_7_);}
	.st1{fill:url(#XMLID_8_);}
	.st2{fill:#D7282F;}
	.st3{fill:#240E0E;}
	.st4{font-family:'Gotham-Medium';}
	.st5{font-size:18px;}
	.st6{fill:#FFFFFF;stroke:#FFFFFF;stroke-miterlimit:10;}
	.st7{font-size:36px;}
	.st8{fill:#FFFFFF;}
</style>
<g>
	<linearGradient id="XMLID_7_" gradientUnits="userSpaceOnUse" x1="17.0298" y1="73.9702" x2="117.1644" y2="73.9702">
		<stop  offset="0" style="stop-color:#F26E21"/>
		<stop  offset="1" style="stop-color:#FCBF12"/>
	</linearGradient>
	<path id="XMLID_5_" class="st0" d="M17.03,71.66l88.13,13.36c6.32,0.96,12.01-3.93,12.01-10.33V62.8L17.03,71.66z"/>
	<linearGradient id="XMLID_8_" gradientUnits="userSpaceOnUse" x1="8.9734" y1="52.7786" x2="127.8428" y2="52.7786">
		<stop  offset="0" style="stop-color:#F26E21"/>
		<stop  offset="1" style="stop-color:#FCBF12"/>
	</linearGradient>
	<path id="XMLID_4_" class="st1" d="M119.79,84.22L17.03,93.14c-4.45,0.39-8.06-2.88-8.06-7.3V30.03c0-4.42,3.61-8.31,8.06-8.69
		l102.76-8.92c4.45-0.39,8.06,2.88,8.06,7.3v55.82C127.84,79.94,124.24,83.83,119.79,84.22z"/>
	<path id="XMLID_3_" class="st2" d="M126.96,57.67L10.33,67.8c-3.2,0.28-5.94-2.24-5.94-5.45V32.31c0-2.84,2.17-5.2,5-5.45
		l116.63-10.13c3.2-0.28,5.94,2.24,5.94,5.45v30.05C131.96,55.06,129.79,57.43,126.96,57.67z"/>
	<text id="XMLID_2_" transform="matrix(0.9961 -0.089 0.089 0.996 52.0523 82.4027)" class="st3 st4 st5">OFF</text>
	<text id="XMLID_1_" transform="matrix(0.9962 -0.0889 0.089 0.996 42.0963 59.5434)" class="st6 st4 st7">200</text>
	<g>
		<path class="st8" d="M39.38,42.39c-0.11-0.1-0.25-0.14-0.41-0.12L36,42.52c-0.28-0.94-0.72-1.74-1.32-2.4l4.04-0.34
			c0.16-0.01,0.29-0.08,0.39-0.19c0.09-0.11,0.14-0.25,0.12-0.41l-0.15-1.77c-0.01-0.16-0.08-0.29-0.19-0.39
			c-0.11-0.1-0.25-0.14-0.41-0.12l-14.42,1.2c-0.16,0.01-0.29,0.08-0.39,0.19c-0.1,0.11-0.14,0.25-0.12,0.41l0.19,2.31
			c0.01,0.15,0.08,0.28,0.2,0.38s0.25,0.14,0.4,0.13l2.51-0.21c2.44-0.2,4.04,0.32,4.81,1.57l-7.16,0.6
			c-0.16,0.01-0.29,0.08-0.39,0.19c-0.1,0.11-0.14,0.25-0.12,0.41l0.15,1.77c0.01,0.16,0.08,0.29,0.19,0.39
			c0.11,0.1,0.25,0.14,0.41,0.12l7.4-0.62c-0.18,0.97-0.71,1.74-1.6,2.32c-0.89,0.57-2.1,0.93-3.62,1.05l-1.94,0.16
			c-0.15,0.01-0.28,0.08-0.38,0.2c-0.1,0.12-0.14,0.25-0.13,0.4l0.18,2.2c0.01,0.15,0.08,0.27,0.19,0.37
			c2.42,2.17,5.57,5.23,9.46,9.18c0.12,0.13,0.27,0.19,0.45,0.17l3.38-0.28c0.24-0.02,0.4-0.14,0.48-0.35
			c0.1-0.22,0.06-0.41-0.12-0.58c-3.72-3.86-6.63-6.73-8.73-8.63c1.95-0.4,3.49-1.16,4.63-2.31c1.14-1.14,1.77-2.56,1.9-4.24
			l2.91-0.24c0.16-0.01,0.29-0.08,0.39-0.19c0.1-0.11,0.14-0.25,0.12-0.41l-0.15-1.77C39.55,42.62,39.49,42.49,39.38,42.39z"/>
	</g>
</g>
</svg>
