<?xml version="1.0" encoding="utf-8"?>
<!-- Generator: Adobe Illustrator 23.0.0, SVG Export Plug-In . SVG Version: 6.00 Build 0)  -->
<svg version="1.1" id="Layer_1" xmlns="http://www.w3.org/2000/svg" xmlns:xlink="http://www.w3.org/1999/xlink" x="0px" y="0px"
	 viewBox="0 0 135 98" style="enable-background:new 0 0 135 98;" xml:space="preserve">
<style type="text/css">
	.st0{fill:url(#XMLID_2_);}
	.st1{fill:url(#XMLID_3_);}
	.st2{fill:#D7282F;}
	.st3{fill:#240E0E;}
	.st4{font-family:'Gotham-Medium';}
	.st5{font-size:18px;}
	.st6{fill:#FFFFFF;stroke:#FFFFFF;stroke-miterlimit:10;}
	.st7{font-size:36px;}
	.st8{fill:#FFFFFF;}
</style>
<linearGradient id="XMLID_2_" gradientUnits="userSpaceOnUse" x1="16.4519" y1="69.9702" x2="116.5865" y2="69.9702">
	<stop  offset="0" style="stop-color:#F26E21"/>
	<stop  offset="1" style="stop-color:#FCBF12"/>
</linearGradient>
<path id="XMLID_10_" class="st0" d="M16.45,67.66l88.13,13.36c6.32,0.96,12.01-3.93,12.01-10.33V58.8L16.45,67.66z"/>
<linearGradient id="XMLID_3_" gradientUnits="userSpaceOnUse" x1="8.3955" y1="48.7786" x2="127.2649" y2="48.7786">
	<stop  offset="0" style="stop-color:#F26E21"/>
	<stop  offset="1" style="stop-color:#FCBF12"/>
</linearGradient>
<path id="XMLID_9_" class="st1" d="M119.21,80.22L16.45,89.14C12,89.53,8.4,86.26,8.4,81.85V26.03c0-4.42,3.61-8.31,8.06-8.69
	l102.76-8.92c4.45-0.39,8.06,2.88,8.06,7.3v55.82C127.26,75.94,123.66,79.83,119.21,80.22z"/>
<path id="XMLID_8_" class="st2" d="M126.39,53.67L9.75,63.8c-3.2,0.28-5.94-2.24-5.94-5.45V28.31c0-2.84,2.17-5.2,5-5.45
	l116.63-10.13c3.2-0.28,5.94,2.24,5.94,5.45v30.05C131.38,51.06,129.21,53.43,126.39,53.67z"/>
<text id="XMLID_7_" transform="matrix(0.9961 -0.089 0.089 0.996 51.4744 78.4027)" class="st3 st4 st5">OFF</text>
<text id="XMLID_6_" transform="matrix(0.9962 -0.0889 0.089 0.996 46.1332 55.1965)" class="st6 st4 st7">100</text>
<g>
	<path class="st8" d="M41.38,37.39c-0.11-0.1-0.25-0.14-0.41-0.12L38,37.52c-0.28-0.94-0.72-1.74-1.32-2.4l4.04-0.34
		c0.16-0.01,0.29-0.08,0.39-0.19c0.09-0.11,0.14-0.25,0.12-0.41l-0.15-1.77c-0.01-0.16-0.08-0.29-0.19-0.39
		c-0.11-0.1-0.25-0.14-0.41-0.12l-14.42,1.2c-0.16,0.01-0.29,0.08-0.39,0.19c-0.1,0.11-0.14,0.25-0.12,0.41l0.19,2.31
		c0.01,0.15,0.08,0.28,0.2,0.38s0.25,0.14,0.4,0.13l2.51-0.21c2.44-0.2,4.04,0.32,4.81,1.57l-7.16,0.6
		c-0.16,0.01-0.29,0.08-0.39,0.19c-0.1,0.11-0.14,0.25-0.12,0.41l0.15,1.77c0.01,0.16,0.08,0.29,0.19,0.39
		c0.11,0.1,0.25,0.14,0.41,0.12l7.4-0.62c-0.18,0.97-0.71,1.74-1.6,2.32c-0.89,0.57-2.1,0.93-3.62,1.05l-1.94,0.16
		c-0.15,0.01-0.28,0.08-0.38,0.2c-0.1,0.12-0.14,0.25-0.13,0.4l0.18,2.2c0.01,0.15,0.08,0.27,0.19,0.37
		c2.42,2.17,5.57,5.23,9.46,9.18c0.12,0.13,0.27,0.19,0.45,0.17l3.38-0.28c0.24-0.02,0.4-0.14,0.48-0.35
		c0.1-0.22,0.06-0.41-0.12-0.58c-3.72-3.86-6.63-6.73-8.73-8.63c1.95-0.4,3.49-1.16,4.63-2.31c1.14-1.14,1.77-2.56,1.9-4.24
		l2.91-0.24c0.16-0.01,0.29-0.08,0.39-0.19c0.1-0.11,0.14-0.25,0.12-0.41l-0.15-1.77C41.55,37.62,41.49,37.49,41.38,37.39z"/>
</g>
</svg>
